<svg xmlns="http://www.w3.org/2000/svg" width="500" height="126"><path fill="#f2f2f2" fill-rule="evenodd" d="M110.552 74.329H87.427v-5.834l14.791-17.5H88.051V45.16h22.083v5.834l-14.79 17.5h15.208zm-36.873 0H60.553V45.16h12.293c5.832 0 9.373 3.544 9.373 7.71 0 4.584-3.957 6.042-3.957 6.042l.27.087c1.095.384 5.146 2.132 5.146 6.995 0 4.583-3.75 8.334-9.999 8.334zm-27.082 0h-6.042l-5.916-18.96h-.251l-5.916 18.96H22.43L12.848 45.16h6.458l6.042 19.586h.209l6.04-19.586h5.833l6.042 19.586h.207L49.72 45.16h6.458zM0 125.085h124.168V.917H0zm75.762-71.59c0-1.665-1.25-2.915-3.333-2.915h-5.627v5.832h5.627c2.083 0 3.333-1.25 3.333-2.916m-2.5 8.334h-6.458v7.081h6.457c2.5 0 3.96-1.458 3.96-3.54s-1.46-3.541-3.96-3.541m112.335 53.244c-2.274 2.186-5.327 3.277-9.158 3.277h-18.851V94.11h18.851c1.916 0 3.652.347 5.208 1.033 1.556.689 2.872 1.6 3.95 2.737a12.242 12.242 0 0 1 2.514 3.996c.598 1.526.897 3.129.897 4.803 0 3.412-1.136 6.21-3.41 8.394zm-28.01-46.997h17.505c3.413 0 6.062.912 7.947 2.737 1.885 1.827 2.827 4.204 2.827 7.137 0 3.174-.942 5.672-2.827 7.497-1.885 1.827-4.534 2.737-7.947 2.737h-17.504zm32.949 26.394a21.002 21.002 0 0 0-5.117-3.501c1.315-.659 2.513-1.586 3.589-2.785.9-1.015 1.721-2.347 2.47-3.994.747-1.646 1.121-3.726 1.121-6.24 0-2.214-.434-4.31-1.3-6.283a16.093 16.093 0 0 0-3.59-5.164c-1.526-1.466-3.368-2.617-5.522-3.456-2.156-.837-4.521-1.257-7.095-1.257h-24.24v62.845h25.587c2.933 0 5.582-.45 7.947-1.347 2.363-.897 4.383-2.154 6.06-3.77s2.975-3.516 3.905-5.702c.927-2.184 1.392-4.562 1.392-7.137 0-2.931-.54-5.386-1.616-7.362-1.078-1.975-2.277-3.59-3.591-4.847zm68.32 9.067c-1.317 3.172-3.129 5.926-5.431 8.259-2.305 2.334-5.014 4.161-8.125 5.478-3.114 1.317-6.464 1.973-10.056 1.973s-6.943-.656-10.055-1.973c-3.114-1.317-5.82-3.144-8.123-5.478-2.307-2.333-4.116-5.087-5.433-8.259-1.317-3.172-1.975-6.612-1.975-10.324 0-3.71.658-7.153 1.975-10.324 1.317-3.174 3.126-5.926 5.433-8.261 2.303-2.333 5.01-4.16 8.123-5.476 3.112-1.315 6.464-1.976 10.055-1.976s6.942.66 10.056 1.976c3.111 1.317 5.82 3.143 8.125 5.476 2.302 2.335 4.114 5.087 5.43 8.26 1.318 3.172 1.976 6.615 1.976 10.325 0 3.712-.658 7.152-1.975 10.324zm-.719-33.217c-2.93-2.933-6.36-5.237-10.279-6.914-3.92-1.674-8.125-2.513-12.614-2.513-4.488 0-8.695.84-12.613 2.513-3.92 1.677-7.347 3.981-10.28 6.914-2.934 2.93-5.237 6.36-6.913 10.28-1.676 3.92-2.513 8.124-2.513 12.613s.837 8.695 2.513 12.614c1.676 3.92 3.979 7.346 6.914 10.279 2.932 2.933 6.358 5.237 10.279 6.913 3.918 1.674 8.125 2.514 12.613 2.514 4.489 0 8.694-.84 12.614-2.514 3.918-1.676 7.348-3.98 10.28-6.913 2.932-2.933 5.237-6.359 6.913-10.28 1.674-3.918 2.513-8.125 2.513-12.613s-.84-8.693-2.513-12.614c-1.676-3.918-3.981-7.348-6.914-10.279zm48.616 23.206c-2.546-1.287-5.283-2.317-8.216-3.096a85.323 85.323 0 0 1-8.213-2.604c-2.546-.957-4.654-2.169-6.33-3.636-1.677-1.466-2.514-3.547-2.514-6.24a9.55 9.55 0 0 1 .897-4.085c.598-1.286 1.466-2.425 2.604-3.412 1.136-.988 2.543-1.78 4.22-2.378 1.676-.598 3.59-.897 5.745-.897 2.335 0 4.355.329 6.061.987 1.705.659 3.155 1.377 4.353 2.154 1.375.958 2.544 2.006 3.501 3.142l4.489-4.489c-1.317-1.495-2.873-2.842-4.667-4.039-1.558-1.017-3.473-1.945-5.748-2.784-2.274-.837-4.936-1.257-7.99-1.257-3.113 0-5.91.465-8.393 1.393-2.483.93-4.61 2.168-6.374 3.724-1.766 1.558-3.113 3.368-4.039 5.431a15.681 15.681 0 0 0-1.392 6.51c0 2.814.493 5.162 1.48 7.047.988 1.887 2.275 3.472 3.86 4.76 1.587 1.288 3.396 2.332 5.432 3.14a81.574 81.574 0 0 0 6.285 2.2c2.154.66 4.248 1.302 6.283 1.93s3.846 1.392 5.434 2.29c1.583.899 2.872 1.99 3.86 3.277.988 1.289 1.48 2.948 1.48 4.983 0 3.41-1.211 6.21-3.634 8.394-2.425 2.187-6.001 3.278-10.729 3.278-2.935 0-5.476-.39-7.632-1.169-2.154-.777-3.92-1.674-5.296-2.692a17.002 17.002 0 0 1-4.131-3.86l-4.039 4.577c1.375 1.797 3.081 3.382 5.117 4.76 1.734 1.196 3.936 2.274 6.6 3.231 2.661.958 5.79 1.436 9.381 1.436 3.35 0 6.344-.448 8.977-1.345 2.632-.9 4.848-2.156 6.643-3.772a15.994 15.994 0 0 0 4.086-5.702c.928-2.182 1.39-4.562 1.39-7.136 0-3.71-.837-6.657-2.513-8.844-1.676-2.184-3.785-3.918-6.328-5.207m11.534-25.451h19.751v56.56h6.733v-56.56h19.751V61.79h-46.235zm105.757 35.462c-1.317 3.172-3.128 5.926-5.43 8.259-2.305 2.334-5.014 4.161-8.126 5.478-3.114 1.317-6.464 1.973-10.055 1.973s-6.944-.656-10.055-1.973c-3.114-1.317-5.821-3.144-8.123-5.478-2.307-2.333-4.117-5.087-5.434-8.259-1.316-3.172-1.975-6.612-1.975-10.324 0-3.71.659-7.153 1.975-10.324 1.317-3.174 3.127-5.926 5.434-8.261 2.302-2.333 5.009-4.16 8.123-5.476 3.111-1.315 6.464-1.976 10.055-1.976s6.941.66 10.055 1.976c3.112 1.317 5.82 3.143 8.125 5.476 2.303 2.335 4.114 5.087 5.431 8.26 1.317 3.172 1.976 6.615 1.976 10.325 0 3.712-.659 7.152-1.976 10.324zm-.718-33.217c-2.931-2.933-6.361-5.237-10.28-6.914-3.92-1.674-8.125-2.513-12.613-2.513-4.489 0-8.695.84-12.614 2.513-3.92 1.677-7.346 3.981-10.279 6.914-2.935 2.93-5.237 6.36-6.914 10.28-1.676 3.92-2.513 8.124-2.513 12.613s.837 8.695 2.513 12.614c1.677 3.92 3.98 7.346 6.914 10.279 2.933 2.933 6.359 5.237 10.28 6.913 3.918 1.674 8.124 2.514 12.613 2.514 4.488 0 8.693-.84 12.614-2.514 3.918-1.676 7.348-3.98 10.279-6.913 2.932-2.933 5.237-6.359 6.913-10.28 1.674-3.918 2.514-8.125 2.514-12.613s-.84-8.693-2.514-12.614c-1.676-3.918-3.98-7.348-6.913-10.279zm65.089-8.53v50.725l-38.605-50.724h-5.836v62.844h6.735V73.913l38.603 50.723h5.836V61.792zm-155.152-42.67 20.95 28.392h8.318V1.824h-9.242v28.393L332.336 1.824h-8.316v45.689h9.242zm44.796 9.463h17.868v-8.811h-17.868V10.96h22.798V1.825h-32.04V47.51h32.657v-9.136h-23.415zm80.103-26.76L449.226 32.5h-.307l-8.937-30.676h-8.626L422.422 32.5h-.308L413.18 1.824h-9.552l14.174 45.688h8.934l8.75-29.696h.37l8.748 29.696h8.935l14.173-45.688zm20.272 12.4c0-2.61 1.848-4.567 6.47-4.567 4.93 0 8.009 3.916 8.009 3.916l6.163-6.529s-4.93-6.199-14.48-6.199c-9.859 0-15.714 6.2-15.714 13.38 0 15.992 21.567 12.4 21.567 20.233 0 2.937-2.156 5.222-7.086 5.222-6.47 0-10.167-4.895-10.167-4.895l-6.162 6.526s5.547 7.181 16.637 7.181c10.167 0 16.33-6.529 16.33-14.034 0-15.99-21.567-12.4-21.567-20.233M219.927 48.49c12.146 0 18.219-9.007 18.219-9.007l-6.073-6.432s-4.252 6.432-12.146 6.432c-7.592 0-13.664-6.432-13.664-14.473s6.072-14.475 13.664-14.475 11.843 6.434 11.843 6.434l6.072-6.434S231.77 1.53 219.927 1.53c-13.057 0-23.078 10.614-23.078 23.482 0 12.866 10.02 23.48 23.078 23.48m40.143-9.328h-9.414V28.228h9.414c3.643 0 5.77 2.25 5.77 5.468s-2.127 5.467-5.77 5.467zm-9.414-28.306h8.199c3.038 0 4.858 1.93 4.858 4.503 0 2.574-1.82 4.504-4.858 4.504h-8.199zm24.597 23.803c0-8.685-7.895-10.936-7.895-10.936l.216-.095c1.048-.494 5.553-2.98 5.553-9.233 0-6.433-5.162-11.901-13.663-11.901h-17.916v45.032h19.13c9.11 0 14.575-5.79 14.575-12.867zm17.187 5.147c-6.378 0-10.021-4.825-10.021-4.825l-6.073 6.432s5.466 7.077 16.397 7.077c10.02 0 16.093-6.434 16.093-13.831 0-15.76-21.255-12.222-21.255-19.943 0-2.574 1.822-4.502 6.378-4.502 4.858 0 7.895 3.859 7.895 3.859l6.072-6.432s-4.859-6.111-14.273-6.111c-9.715 0-15.486 6.111-15.486 13.186 0 15.762 21.257 12.224 21.257 19.943 0 2.896-2.126 5.147-6.984 5.147M169.486 12.075h-.045c-2.044 0-3.976.45-5.702 1.263a12.933 12.933 0 0 0-3.544 2.453l-.039.04a9.182 9.182 0 0 0-.284.294c-.054.054-.11.11-.161.166-.05.053-.097.111-.147.167a9.276 9.276 0 0 0-.294.336c-1.847 2.23-2.955 5.098-2.955 8.274V25.119c0 7.314 5.784 13.044 13.171 13.044 7.635 0 13.176-5.484 13.176-13.044 0-7.316-5.789-13.044-13.176-13.044m20.071 17.3-.417.574c-3.206 4.275-9.313 9.78-19.558 9.914-13.244.175-19.585-8.6-21.838-12.749l-.253-.49a15.44 15.44 0 0 1-.694-1.55l.187-.477c1.173-2.844 6.918-14.43 22.598-14.232 14.639.187 20.367 10.029 21.96 13.586l.174.423c.175.441.254.694.254.694l-.151.36c-.29.66-1.007 2.157-2.262 3.948zM173.34.756a24.73 24.73 0 0 0-3.767-.289c-13.178 0-23.937 10.363-24.574 23.382-.023.447-.036.895-.036 1.349 0 13.63 11.086 24.717 24.713 24.717 13.63 0 24.72-11.088 24.72-24.717 0-12.384-9.156-22.667-21.056-24.442z"/></svg>